<svg width="15" height="15" viewBox="0 0 15 15" fill="none" xmlns="http://www.w3.org/2000/svg">
<path d="M10.625 15H4.375C3.21508 14.9987 2.10305 14.5373 1.28287 13.7171C0.462684 12.8969 0.00132335 11.7849 0 10.625L0 4.375C0.00132335 3.21508 0.462684 2.10305 1.28287 1.28287C2.10305 0.462684 3.21508 0.00132335 4.375 0L10.625 0C11.7849 0.00132335 12.8969 0.462684 13.7171 1.28287C14.5373 2.10305 14.9987 3.21508 15 4.375V10.625C14.9987 11.7849 14.5373 12.8969 13.7171 13.7171C12.8969 14.5373 11.7849 14.9987 10.625 15ZM4.375 0.625C3.38079 0.626158 2.42764 1.02162 1.72463 1.72463C1.02162 2.42764 0.626158 3.38079 0.625 4.375V10.625C0.626158 11.6192 1.02162 12.5724 1.72463 13.2754C2.42764 13.9784 3.38079 14.3738 4.375 14.375H10.625C11.6192 14.3738 12.5724 13.9784 13.2754 13.2754C13.9784 12.5724 14.3738 11.6192 14.375 10.625V4.375C14.3738 3.38079 13.9784 2.42764 13.2754 1.72463C12.5724 1.02162 11.6192 0.626158 10.625 0.625H4.375Z" fill="#FFF"/>
<path d="M7.42751 4.375C6.82373 4.37488 6.23348 4.55381 5.7314 4.88917C5.22933 5.22454 4.83798 5.70127 4.60687 6.25907C4.37575 6.81687 4.31525 7.43067 4.43301 8.02285C4.55077 8.61504 4.84151 9.15901 5.26845 9.58594C5.69539 10.0129 6.23935 10.3036 6.83153 10.4214C7.42372 10.5391 8.03753 10.4786 8.59532 10.2475C9.15312 10.0164 9.62985 9.62506 9.96521 9.12298C10.3006 8.62091 10.4795 8.03065 10.4794 7.42687C10.4792 6.61752 10.1576 5.84135 9.58533 5.26905C9.01303 4.69675 8.23687 4.37517 7.42751 4.375Z" fill="#FFF"/>
<path d="M11.6338 3.1123C11.4534 3.1123 11.2771 3.16579 11.1272 3.26598C10.9772 3.36618 10.8603 3.5086 10.7913 3.67522C10.7223 3.84184 10.7042 4.02519 10.7394 4.20208C10.7746 4.37896 10.8615 4.54145 10.989 4.66897C11.1165 4.7965 11.279 4.88335 11.4559 4.91854C11.6328 4.95372 11.8161 4.93566 11.9827 4.86665C12.1494 4.79763 12.2918 4.68075 12.392 4.53079C12.4922 4.38083 12.5457 4.20454 12.5457 4.02418C12.5457 3.90441 12.5222 3.7858 12.4764 3.67513C12.4306 3.56445 12.3634 3.4639 12.2788 3.3792C12.1941 3.29451 12.0935 3.22735 11.9828 3.18155C11.8722 3.13575 11.7535 3.11222 11.6338 3.1123Z" fill="#FFF"/>
</svg>
