<svg width="15" height="15" viewBox="0 0 15 15" fill="none" xmlns="http://www.w3.org/2000/svg">
<path d="M10.625 15H4.375C3.21508 14.9987 2.10305 14.5373 1.28287 13.7171C0.462684 12.8969 0.00132335 11.7849 0 10.625L0 4.375C0.00132335 3.21508 0.462684 2.10305 1.28287 1.28287C2.10305 0.462684 3.21508 0.00132335 4.375 0L10.625 0C11.7849 0.00132335 12.8969 0.462684 13.7171 1.28287C14.5373 2.10305 14.9987 3.21508 15 4.375V10.625C14.9987 11.7849 14.5373 12.8969 13.7171 13.7171C12.8969 14.5373 11.7849 14.9987 10.625 15ZM4.375 0.625C3.38079 0.626158 2.42764 1.02162 1.72463 1.72463C1.02162 2.42764 0.626158 3.38079 0.625 4.375V10.625C0.626158 11.6192 1.02162 12.5724 1.72463 13.2754C2.42764 13.9784 3.38079 14.3738 4.375 14.375H10.625C11.6192 14.3738 12.5724 13.9784 13.2754 13.2754C13.9784 12.5724 14.3738 11.6192 14.375 10.625V4.375C14.3738 3.38079 13.9784 2.42764 13.2754 1.72463C12.5724 1.02162 11.6192 0.626158 10.625 0.625H4.375Z" fill="#FFF"/>
<path d="M9.79125 7.84031L5.53062 10.6078C5.47462 10.6354 5.41253 10.6482 5.35019 10.6452C5.28785 10.6421 5.2273 10.6233 5.17425 10.5904C5.12119 10.5576 5.07735 10.5117 5.04687 10.4573C5.01639 10.4028 5.00027 10.3415 5 10.2791V4.74218C5.00016 4.67971 5.01622 4.61832 5.04665 4.56377C5.07709 4.50922 5.1209 4.4633 5.17398 4.43036C5.22705 4.39741 5.28764 4.37851 5.35004 4.37544C5.41243 4.37237 5.47457 4.38523 5.53062 4.41281L9.79125 7.18031C9.85276 7.21083 9.90453 7.25793 9.94072 7.31629C9.97691 7.37465 9.99608 7.44195 9.99608 7.51062C9.99608 7.57929 9.97691 7.64659 9.94072 7.70495C9.90453 7.76331 9.85276 7.81041 9.79125 7.84094V7.84031Z" fill="#FFF"/>
</svg>
